<svg width="116" height="26" viewBox="0 0 116 26" fill="none" xmlns="http://www.w3.org/2000/svg">
<g filter="url(#filter0_d)">
<path fill-rule="evenodd" clip-rule="evenodd" d="M107.847 2.65853V17.4498H105.734V2.65853H101.978V1.01506H111.604V2.65853H107.847ZM99.7123 11.3572C99.3444 11.819 98.8827 12.1477 98.327 12.3433C97.7714 12.539 97.1101 12.6368 96.3431 12.6368C95.9831 12.6368 95.5762 12.6133 95.1223 12.5664C94.6684 12.5194 94.2927 12.4646 93.9953 12.402V17.4498H91.8823V1.24984C92.477 1.07766 93.0757 0.95636 93.6784 0.885926C94.281 0.815491 94.9344 0.780273 95.6388 0.780273C96.5779 0.780273 97.3762 0.8781 98.0336 1.07375C98.691 1.2694 99.2231 1.59419 99.6301 2.0481C100.037 2.50201 100.334 3.10462 100.522 3.85593C100.71 4.60723 100.804 5.53853 100.804 6.64984C100.804 7.79245 100.714 8.74723 100.534 9.51419C100.354 10.2811 100.08 10.8955 99.7123 11.3572ZM98.5149 4.5368C98.3975 3.97332 98.2136 3.52723 97.9631 3.19853C97.7127 2.86984 97.3957 2.63897 97.0123 2.50593C96.6288 2.37288 96.171 2.30636 95.6388 2.30636H93.9953V10.9933H95.6388C96.171 10.9933 96.6288 10.9268 97.0123 10.7938C97.3957 10.6607 97.7127 10.4298 97.9631 10.1011C98.2136 9.77245 98.3975 9.32636 98.5149 8.76288C98.6323 8.1994 98.691 7.49506 98.691 6.64984C98.691 5.80462 98.6323 5.10027 98.5149 4.5368ZM86.5997 13.2238H81.904L80.8475 17.4498H78.7344L82.7257 1.01506H85.7779L89.7692 17.4498H87.6562L86.5997 13.2238ZM84.2988 3.36288H84.2049L82.2562 11.5803H86.2475L84.2988 3.36288ZM74.1562 5.24114H74.0388L70.6344 15.3368H68.5214L65.117 5.24114H64.9996L64.2953 17.4498H62.1823L63.1214 1.01506H65.704L69.531 12.2846H69.6249L73.4518 1.01506H76.0344L76.9736 17.4498H74.8605L74.1562 5.24114ZM58.3788 15.9238C57.9405 16.5655 57.4123 17.0194 56.794 17.2855C56.1757 17.5516 55.4675 17.6846 54.6692 17.6846C53.871 17.6846 53.1627 17.5516 52.5444 17.2855C51.9262 17.0194 51.3979 16.5655 50.9597 15.9238C50.5214 15.282 50.1888 14.4172 49.9618 13.3294C49.7349 12.2416 49.6214 10.8759 49.6214 9.23245C49.6214 7.58897 49.7349 6.22332 49.9618 5.13549C50.1888 4.04766 50.5214 3.18288 50.9597 2.54114C51.3979 1.8994 51.9262 1.44549 52.5444 1.1794C53.1627 0.913317 53.871 0.780273 54.6692 0.780273C55.4675 0.780273 56.1757 0.913317 56.794 1.1794C57.4123 1.44549 57.9405 1.8994 58.3788 2.54114C58.817 3.18288 59.1497 4.04766 59.3766 5.13549C59.6036 6.22332 59.717 7.58897 59.717 9.23245C59.717 10.8759 59.6036 12.2416 59.3766 13.3294C59.1497 14.4172 58.817 15.282 58.3788 15.9238ZM57.3575 5.75766C57.1931 4.84984 56.9779 4.12984 56.7118 3.59766C56.4457 3.06549 56.1327 2.69766 55.7727 2.49419C55.4127 2.29071 55.0449 2.18897 54.6692 2.18897C54.2936 2.18897 53.9257 2.29071 53.5657 2.49419C53.2057 2.69766 52.8927 3.06549 52.6266 3.59766C52.3605 4.12984 52.1453 4.84984 51.981 5.75766C51.8166 6.66549 51.7344 7.82375 51.7344 9.23245C51.7344 10.6411 51.8166 11.7994 51.981 12.7072C52.1453 13.6151 52.3605 14.3351 52.6266 14.8672C52.8927 15.3994 53.2057 15.7672 53.5657 15.9707C53.9257 16.1742 54.2936 16.2759 54.6692 16.2759C55.0449 16.2759 55.4127 16.1742 55.7727 15.9707C56.1327 15.7672 56.4457 15.3994 56.7118 14.8672C56.9779 14.3351 57.1931 13.6151 57.3575 12.7072C57.5218 11.7994 57.604 10.6411 57.604 9.23245C57.604 7.82375 57.5218 6.66549 57.3575 5.75766ZM44.691 9.9368H39.7605V17.4498H37.6475V1.01506H39.7605V8.29332H44.691V1.01506H46.804V17.4498H44.691V9.9368ZM33.5396 17.4498L30.6048 10.4064L27.67 17.4498H25.557L29.0787 8.99766L25.9091 1.01506H28.0222L30.6048 7.58897L33.1874 1.01506H35.3004L32.1309 8.99766L35.6526 17.4498H33.5396ZM16.283 1.01506H24.2657V2.65853H18.3961V8.05853H23.5613V9.70201H18.3961V15.8064H24.2657V17.4498H16.283V1.01506ZM10.6483 17.4498H8.53522V2.65853H4.77869V1.01506H14.4048V2.65853H10.6483V17.4498Z" fill="white"/>
</g>
<defs>
<filter id="filter0_d" x="0.778694" y="0.780273" width="114.825" height="24.9043" filterUnits="userSpaceOnUse" color-interpolation-filters="sRGB">
<feFlood flood-opacity="0" result="BackgroundImageFix"/>
<feColorMatrix in="SourceAlpha" type="matrix" values="0 0 0 0 0 0 0 0 0 0 0 0 0 0 0 0 0 0 127 0"/>
<feOffset dy="4"/>
<feGaussianBlur stdDeviation="2"/>
<feColorMatrix type="matrix" values="0 0 0 0 0 0 0 0 0 0 0 0 0 0 0 0 0 0 0.25 0"/>
<feBlend mode="normal" in2="BackgroundImageFix" result="effect1_dropShadow"/>
<feBlend mode="normal" in="SourceGraphic" in2="effect1_dropShadow" result="shape"/>
</filter>
</defs>
</svg>
